<svg width="15" height="19" viewBox="0 0 15 19" fill="none" xmlns="http://www.w3.org/2000/svg">
<g clip-path="url(#clip0_73_388)">
<path d="M14.5627 17.1943C15.1568 17.6149 15.1434 18.289 14.5314 18.6988C13.9216 19.1085 12.9441 19.0992 12.3501 18.6771L0.441533 10.2053L1.54675 9.46471L0.437051 10.2069C-0.157031 9.78323 -0.143579 9.10753 0.470678 8.69778C0.488613 8.68541 0.506547 8.67459 0.524482 8.66376L12.3523 0.323431C12.9464 -0.0986878 13.9216 -0.107965 14.5336 0.301784C15.1434 0.711534 15.1568 1.38414 14.5627 1.80626L3.69889 9.4678L14.5627 17.1943Z" fill="black"/>
</g>
<defs>
<clipPath id="clip0_73_388">
<rect width="15" height="19" fill="white" transform="matrix(-1 0 0 1 15 0)"/>
</clipPath>
</defs>
</svg>
