<svg width="20" height="20" viewBox="0 0 92 92" fill="none" xmlns="http://www.w3.org/2000/svg">
<path fill-rule="evenodd" clip-rule="evenodd" d="M78.4434 17.5195C79.5586 16.4042 79.5586 14.5961 78.4434 13.4808C77.3281 12.3655 75.5199 12.3655 74.4047 13.4808L13.4809 74.4046C12.3656 75.5199 12.3656 77.3281 13.4809 78.4433C14.5961 79.5586 16.4043 79.5586 17.5196 78.4433L28.3598 67.6031C33.5623 70.0521 39.5544 71.6643 45.9621 71.6643C56.1821 71.6643 65.3448 67.563 71.9331 62.5065C75.2336 59.9735 77.9593 57.1475 79.8849 54.3728C81.7572 51.6747 83.0876 48.7139 83.0876 45.9621C83.0876 43.2102 81.7572 40.2494 79.8849 37.5513C77.9593 34.7766 75.2336 31.9507 71.9331 29.4176C70.935 28.6515 69.8778 27.9074 68.7668 27.1961L78.4434 17.5195ZM64.6183 31.3446L57.8754 38.0875C59.3705 40.3448 60.2411 43.0518 60.2411 45.9621C60.2411 53.8481 53.8482 60.2411 45.9621 60.2411C43.0518 60.2411 40.3449 59.3704 38.0875 57.8753L32.6931 63.2698C36.7503 64.9227 41.2486 65.9527 45.9621 65.9527C54.6687 65.9527 62.6408 62.4384 68.4557 57.9756C71.3568 55.749 73.6498 53.3393 75.1925 51.1164C76.7884 48.8168 77.3759 47.0179 77.3759 45.9621C77.3759 44.9062 76.7884 43.1073 75.1925 40.8077C73.6498 38.5848 71.3568 36.1751 68.4557 33.9485C67.2632 33.0333 65.9799 32.1579 64.6183 31.3446ZM42.2684 53.6945C43.3868 54.2297 44.6395 54.5295 45.9621 54.5295C50.6938 54.5295 54.5295 50.6937 54.5295 45.9621C54.5295 44.6394 54.2298 43.3867 53.6946 42.2683L42.2684 53.6945Z" fill="black"/>
<path d="M45.9621 20.2598C50.2991 20.2598 54.4456 20.9984 58.2858 22.2351C58.4628 22.2921 58.5158 22.5158 58.3843 22.6473L54.161 26.8705C54.0992 26.9324 54.0095 26.9574 53.9245 26.9368C51.3728 26.3199 48.7039 25.9714 45.9621 25.9714C37.2555 25.9714 29.2834 29.4857 23.4686 33.9485C20.5675 36.1751 18.2744 38.5848 16.7317 40.8077C15.1358 43.1073 14.5483 44.9062 14.5483 45.9621C14.5483 47.0179 15.1358 48.8168 16.7317 51.1164C18.1928 53.2218 20.327 55.4946 23.0134 57.6208C23.1312 57.7141 23.1422 57.8894 23.0359 57.9957L19.3292 61.7024C19.2388 61.7927 19.0948 61.8004 18.9958 61.7197C16.1409 59.3954 13.7678 56.8634 12.0394 54.3728C10.167 51.6747 8.83667 48.7139 8.83667 45.9621C8.83667 43.2102 10.167 40.2494 12.0394 37.5513C13.965 34.7766 16.6906 31.9507 19.9911 29.4176C26.5794 24.3611 35.7421 20.2598 45.9621 20.2598Z" fill="black"/>
<path d="M45.9621 31.683C46.8534 31.683 47.7257 31.7647 48.5718 31.921C48.7662 31.9569 48.8366 32.195 48.6968 32.3348L43.1725 37.8591C40.6849 38.7153 38.7154 40.6848 37.8591 43.1724L32.3348 48.6967C32.195 48.8365 31.9569 48.7662 31.921 48.5718C31.7648 47.7256 31.6831 46.8534 31.6831 45.9621C31.6831 38.076 38.076 31.683 45.9621 31.683Z" fill="black"/>
</svg>
