<svg width="20" height="20" viewBox="0 0 92 92" fill="none" xmlns="http://www.w3.org/2000/svg">
<path fill-rule="evenodd" clip-rule="evenodd" d="M31.4138 45.6928C31.4138 37.8068 37.8067 31.4138 45.6928 31.4138C53.5789 31.4138 59.9718 37.8068 59.9718 45.6928C59.9718 53.5789 53.5789 59.9719 45.6928 59.9719C37.8067 59.9719 31.4138 53.5789 31.4138 45.6928ZM45.6928 37.1254C40.9612 37.1254 37.1254 40.9612 37.1254 45.6928C37.1254 50.4245 40.9612 54.2602 45.6928 54.2602C50.4245 54.2602 54.2602 50.4245 54.2602 45.6928C54.2602 40.9612 50.4245 37.1254 45.6928 37.1254Z" fill="black"/>
<path fill-rule="evenodd" clip-rule="evenodd" d="M16.4624 40.5385C14.8666 42.8381 14.279 44.6369 14.279 45.6928C14.279 46.7487 14.8666 48.5475 16.4624 50.8472C18.0051 53.0701 20.2982 55.4798 23.1993 57.7064C29.0141 62.1692 36.9863 65.6835 45.6928 65.6835C54.3994 65.6835 62.3715 62.1692 68.1864 57.7064C71.0875 55.4798 73.3805 53.0701 74.9232 50.8472C76.5191 48.5475 77.1067 46.7487 77.1067 45.6928C77.1067 44.6369 76.5191 42.8381 74.9232 40.5385C73.3805 38.3156 71.0875 35.9059 68.1864 33.6793C62.3715 29.2164 54.3994 25.7022 45.6928 25.7022C36.9863 25.7022 29.0141 29.2164 23.1993 33.6793C20.2982 35.9059 18.0051 38.3156 16.4624 40.5385ZM19.7218 29.1483C26.3101 24.0918 35.4728 19.9906 45.6928 19.9906C55.9129 19.9906 65.0755 24.0918 71.6639 29.1483C74.9643 31.6814 77.69 34.5074 79.6156 37.2821C81.488 39.9801 82.8183 42.941 82.8183 45.6928C82.8183 48.4447 81.488 51.4055 79.6156 54.1036C77.69 56.8783 74.9643 59.7042 71.6639 62.2373C65.0755 67.2938 55.9129 71.3951 45.6928 71.3951C35.4728 71.3951 26.3101 67.2938 19.7218 62.2373C16.4213 59.7042 13.6957 56.8783 11.7701 54.1036C9.8977 51.4055 8.56738 48.4447 8.56738 45.6928C8.56738 42.941 9.8977 39.9801 11.7701 37.2821C13.6957 34.5074 16.4213 31.6814 19.7218 29.1483Z" fill="black"/>
</svg>
