<svg width="21" height="17" viewBox="0 0 21 17" fill="none" xmlns="http://www.w3.org/2000/svg">
<path d="M10.6876 11.7123L10.3305 12.0882C10.3305 12.0882 9.48167 12.9819 7.16483 10.5426C4.848 8.10341 5.69679 7.20981 5.69679 7.20981L5.92167 6.97306C6.47563 6.38984 6.52786 5.45348 6.04454 4.76989L5.05588 3.37156C4.45767 2.52549 3.30174 2.41373 2.61609 3.13559L1.38546 4.43122C1.04548 4.78915 0.817652 5.25314 0.845282 5.76786C0.915963 7.08467 1.47865 9.91784 4.61846 13.2235C7.94809 16.729 11.0723 16.8683 12.3499 16.7422C12.754 16.7023 13.1054 16.4844 13.3886 16.1863L14.5024 15.0137C15.2542 14.2222 15.0422 12.8652 14.0802 12.3115L12.5823 11.4493C11.9507 11.0858 11.1812 11.1925 10.6876 11.7123Z" fill="black"/>
<path fill-rule="evenodd" clip-rule="evenodd" d="M20.1124 5.62868C20.1124 3.00562 17.9859 0.879193 15.3629 0.879193C14.6032 0.879193 13.885 1.05758 13.2482 1.37475C13.079 1.45911 12.8856 1.48713 12.7029 1.4383L11.6457 1.15542C11.1867 1.0326 10.7668 1.45246 10.8896 1.91145L11.1725 2.96867C11.2213 3.15132 11.1933 3.34475 11.109 3.51398C10.7918 4.15081 10.6134 4.86892 10.6134 5.62868C10.6134 8.25175 12.7398 10.3782 15.3629 10.3782C17.9859 10.3782 20.1124 8.25175 20.1124 5.62868ZM15.3629 7.70659C15.8548 7.70659 16.2534 7.30788 16.2534 6.81606V6.51921H16.5503C17.0421 6.51921 17.4408 6.12051 17.4408 5.62868C17.4408 5.13685 17.0421 4.73815 16.5503 4.73815H16.2534V4.44131C16.2534 3.94948 15.8548 3.55078 15.3629 3.55078C14.871 3.55078 14.4724 3.94948 14.4724 4.44131V4.73815H14.1755C13.6837 4.73815 13.285 5.13685 13.285 5.62868C13.285 6.12051 13.6837 6.51921 14.1755 6.51921H14.4724V6.81606C14.4724 7.30788 14.871 7.70659 15.3629 7.70659Z" fill="black"/>
</svg>
