<svg width="19" height="22" viewBox="0 0 19 22" fill="none" xmlns="http://www.w3.org/2000/svg">
<g clip-path="url(#clip0_73_40)">
<rect width="19" height="22" fill="white"/>
<path fill-rule="evenodd" clip-rule="evenodd" d="M7.99187 16.8093C4.25718 16.8093 1.22966 13.365 1.22966 9.10937C1.22966 4.85375 4.25718 1.40253 7.99187 1.40253C11.7266 1.40253 14.7547 4.85375 14.7547 9.10937C14.7547 13.365 11.7266 16.8093 7.99187 16.8093ZM18.8147 20.7969L13.911 15.2075C15.1946 13.5919 15.9838 11.4606 15.9838 9.10937C15.9838 4.07687 12.4058 0 7.99187 0C3.57793 0 0 4.07687 0 9.10937C0 14.135 3.57793 18.2119 7.99187 18.2119C9.89899 18.2119 11.6482 17.4488 13.0221 16.1769L17.9455 21.7868C18.186 22.0618 18.5749 22.0618 18.8147 21.7868C19.0552 21.5187 19.0552 21.0719 18.8147 20.7969Z" fill="#959494"/>
</g>
<defs>
<clipPath id="clip0_73_40">
<rect width="19" height="22" fill="white"/>
</clipPath>
</defs>
</svg>
