<svg width="16" height="18" viewBox="0 0 16 18" fill="none" xmlns="http://www.w3.org/2000/svg">
<g clip-path="url(#clip0_73_34)">
<path d="M14.996 6.39999H12.8L12.332 3.13799C12.1399 2.13251 11.49 1.33129 10.64 1.05199C10.2208 0.894628 9.78428 0.809788 9.344 0.799988H6.656C6.21572 0.809788 5.77916 0.894628 5.36 1.05199C4.51004 1.33129 3.86012 2.13251 3.668 3.13799L3.2 6.39999H1.004C0.672681 6.39761 0.402441 6.70911 0.400401 7.09579C0.400041 7.16845 0.409281 7.24069 0.428001 7.30999L2.684 16.13C2.91968 17.0044 3.61436 17.5994 4.4 17.6H11.6C12.3812 17.5934 13.0696 16.9995 13.304 16.13L15.56 7.30999C15.6595 6.94123 15.4838 6.54825 15.1677 6.43219C15.1122 6.41175 15.0543 6.40097 14.996 6.39999ZM4.424 6.39999L4.856 3.36199C4.95284 2.85449 5.30432 2.46669 5.744 2.38199C6.03956 2.27335 6.34628 2.21217 6.656 2.19999H9.344C9.65768 2.21091 9.9686 2.27209 10.268 2.38199C10.7077 2.46669 11.0592 2.85449 11.156 3.36199L11.576 6.39999H4.376H4.424Z" fill="black"/>
</g>
<defs>
<clipPath id="clip0_73_34">
<rect width="16" height="18" fill="white"/>
</clipPath>
</defs>
</svg>
