<svg width="420" height="210" viewBox="0 0 390 196" fill="none" xmlns="http://www.w3.org/2000/svg">
<g filter="url(#filter0_d_2_8)">
<circle cx="67" cy="77" r="100" fill="white"/>
</g>
<g filter="url(#filter1_d_2_8)">
<ellipse cx="75.7802" cy="49.3165" rx="110" ry="75" transform="rotate(12.68 75.7802 49.3165)" fill="white"/>
</g>
<g filter="url(#filter2_d_2_8)">
<rect x="8.48877" y="-90" width="433.92" height="199.55" rx="80" transform="rotate(12 8.48877 -90)" fill="#F8C8C8"/>
</g>
<g filter="url(#filter3_d_2_8)">
<path d="M126.5 96.9C128.733 96.9 130.533 96.35 131.9 95.25C133.3 94.15 134 92.5333 134 90.4C134 88.7 133.483 87.2833 132.45 86.15C131.417 84.9833 129.617 84.05 127.05 83.35L123.6 82.35C121.067 81.65 119.133 80.4667 117.8 78.8C116.467 77.1333 115.8 75.1 115.8 72.7C115.8 71.1 116.167 69.6 116.9 68.2C117.667 66.8 118.817 65.6667 120.35 64.8C121.917 63.9333 123.9 63.5 126.3 63.5C128.967 63.5 131.117 64 132.75 65C134.383 65.9667 135.517 67.2333 136.15 68.8C136.783 70.3667 136.933 72.05 136.6 73.85L132.4 74.75C132.833 71.65 132.517 69.2667 131.45 67.6C130.417 65.9333 128.617 65.1 126.05 65.1C124.017 65.1 122.417 65.65 121.25 66.75C120.083 67.8167 119.5 69.3833 119.5 71.45C119.5 73.0833 119.967 74.4833 120.9 75.65C121.833 76.7833 123.483 77.6833 125.85 78.35L129.3 79.35C134.867 80.8833 137.65 84.1333 137.65 89.1C137.65 90.8667 137.233 92.4667 136.4 93.9C135.6 95.3 134.367 96.4167 132.7 97.25C131.067 98.0833 129 98.5 126.5 98.5C124.767 98.5 123.1 98.2333 121.5 97.7C119.933 97.1667 118.583 96.25 117.45 94.95C116.35 93.65 115.617 91.85 115.25 89.55L118.25 88.55C118.417 90.75 118.9 92.45 119.7 93.65C120.5 94.85 121.5 95.7 122.7 96.2C123.9 96.6667 125.167 96.9 126.5 96.9ZM147.993 67.65C147.193 67.65 146.526 67.4 145.993 66.9C145.493 66.3667 145.243 65.6833 145.243 64.85C145.243 64.05 145.493 63.4 145.993 62.9C146.526 62.4 147.193 62.15 147.993 62.15C148.793 62.15 149.443 62.4 149.943 62.9C150.476 63.4 150.743 64.05 150.743 64.85C150.743 65.6833 150.476 66.3667 149.943 66.9C149.443 67.4 148.793 67.65 147.993 67.65ZM142.143 74.6V73.25H150.093V93.95C150.093 95.1167 150.143 95.8 150.243 96C150.343 96.2 150.659 96.3333 151.193 96.4L153.943 96.7V98H142.143V96.7L144.893 96.4C145.426 96.3333 145.743 96.2 145.843 96C145.943 95.8 145.993 95.1167 145.993 93.95V77.3C145.993 76.1333 145.943 75.45 145.843 75.25C145.743 75.05 145.426 74.9167 144.893 74.85L142.143 74.6ZM180.384 100.9C180.384 103.567 179.401 105.6 177.434 107C175.501 108.433 172.801 109.15 169.334 109.15C165.534 109.15 162.751 108.483 160.984 107.15C159.217 105.85 158.301 104.2 158.234 102.2L161.934 101.45C161.801 103.283 162.284 104.75 163.384 105.85C164.517 106.983 166.501 107.55 169.334 107.55C171.867 107.55 173.901 107.083 175.434 106.15C177.001 105.217 177.784 103.85 177.784 102.05C177.784 100.717 177.334 99.7167 176.434 99.05C175.534 98.3833 174.051 98.05 171.984 98.05H166.034C163.801 98.05 162.234 97.5833 161.334 96.65C160.434 95.6833 159.984 94.6167 159.984 93.45C159.984 92.4833 160.217 91.5833 160.684 90.75C161.184 89.8833 161.967 89.0333 163.034 88.2C161.701 87.5667 160.617 86.65 159.784 85.45C158.951 84.2167 158.534 82.7333 158.534 81C158.534 79.1667 158.951 77.65 159.784 76.45C160.651 75.2167 161.784 74.3 163.184 73.7C164.617 73.0667 166.201 72.75 167.934 72.75H168.784C170.617 72.75 172.251 73.0833 173.684 73.75L180.934 71.25L181.484 75H175.634C176.401 75.6667 177.001 76.5 177.434 77.5C177.901 78.5 178.134 79.6667 178.134 81C178.134 82.7667 177.701 84.2667 176.834 85.5C176.001 86.7333 174.884 87.6667 173.484 88.3C172.084 88.9 170.517 89.2 168.784 89.2H167.934C167.367 89.2 166.817 89.1667 166.284 89.1C165.751 89.0333 165.234 88.9333 164.734 88.8C164.001 89.3 163.467 89.8167 163.134 90.35C162.834 90.8833 162.684 91.4333 162.684 92C162.684 92.6667 162.917 93.2 163.384 93.6C163.884 94 164.667 94.2 165.734 94.2H172.234C174.867 94.2 176.884 94.7667 178.284 95.9C179.684 97.0333 180.384 98.7 180.384 100.9ZM168.784 87.6C169.684 87.6 170.501 87.4 171.234 87C172.001 86.6 172.617 85.9333 173.084 85C173.551 84.0333 173.784 82.7 173.784 81C173.784 79.2667 173.551 77.9333 173.084 77C172.617 76.0333 172.001 75.35 171.234 74.95C170.501 74.55 169.684 74.35 168.784 74.35H167.934C167.034 74.35 166.201 74.55 165.434 74.95C164.667 75.35 164.051 76.0333 163.584 77C163.117 77.9333 162.884 79.2667 162.884 81C162.884 82.7 163.117 84.0333 163.584 85C164.051 85.9333 164.667 86.6 165.434 87C166.201 87.4 167.034 87.6 167.934 87.6H168.784ZM212.036 96.7V98H200.236V96.7L202.986 96.4C203.519 96.3333 203.836 96.2 203.936 96C204.036 95.8 204.086 95.1167 204.086 93.95V81.5C204.086 79.0333 203.686 77.3 202.886 76.3C202.086 75.2667 200.936 74.75 199.436 74.75C198.336 74.75 197.119 75.0833 195.786 75.75C194.453 76.4167 193.203 77.7167 192.036 79.65V93.95C192.036 95.1167 192.086 95.8 192.186 96C192.286 96.2 192.603 96.3333 193.136 96.4L195.886 96.7V98H184.086V96.7L186.836 96.4C187.369 96.3333 187.686 96.2 187.786 96C187.886 95.8 187.936 95.1167 187.936 93.95V77.3C187.936 76.1333 187.886 75.45 187.786 75.25C187.686 75.05 187.369 74.9167 186.836 74.85L184.086 74.6V73.25H191.786V77.3C192.986 75.7 194.336 74.55 195.836 73.85C197.369 73.1167 198.903 72.75 200.436 72.75C202.903 72.75 204.803 73.5167 206.136 75.05C207.503 76.55 208.186 78.6833 208.186 81.45V93.95C208.186 95.1167 208.236 95.8 208.336 96C208.436 96.2 208.753 96.3333 209.286 96.4L212.036 96.7ZM247.123 65.35V64H256.673V65.35L253.923 65.6C253.39 65.6667 253.073 65.8 252.973 66C252.873 66.2 252.823 66.8833 252.823 68.05V86.45C252.823 90.25 251.94 93.2167 250.173 95.35C248.44 97.45 245.773 98.5 242.173 98.5C238.24 98.5 235.223 97.35 233.123 95.05C231.057 92.75 230.023 89.5833 230.023 85.55V68.05C230.023 66.8833 229.973 66.2 229.873 66C229.773 65.8 229.457 65.6667 228.923 65.6L226.173 65.35V64H238.223V65.35L235.473 65.6C234.94 65.6667 234.623 65.8 234.523 66C234.423 66.2 234.373 66.8833 234.373 68.05V86.3C234.373 89.8667 235.04 92.5167 236.373 94.25C237.74 95.9833 239.807 96.85 242.573 96.85C245.373 96.85 247.473 95.9667 248.873 94.2C250.273 92.4333 250.973 89.8667 250.973 86.5V68.05C250.973 66.8833 250.923 66.2 250.823 66C250.723 65.8 250.407 65.6667 249.873 65.6L247.123 65.35ZM258.834 74.55V73.25H266.534V77.25C267.534 75.6833 268.65 74.55 269.884 73.85C271.15 73.1167 272.55 72.75 274.084 72.75C276.95 72.75 279.167 73.8333 280.734 76C282.334 78.1667 283.134 81.2 283.134 85.1V86.1C283.134 89.9 282.217 92.9167 280.384 95.15C278.55 97.3833 276 98.5 272.734 98.5C270.4 98.5 268.417 97.7833 266.784 96.35V104.6C266.784 105.733 266.834 106.4 266.934 106.6C267.034 106.833 267.35 106.983 267.884 107.05L271.634 107.3V108.65H258.834V107.3L261.584 107.05C262.117 106.983 262.434 106.833 262.534 106.6C262.634 106.4 262.684 105.733 262.684 104.6V77.3C262.684 76.1333 262.634 75.45 262.534 75.25C262.434 75.05 262.117 74.9167 261.584 74.85L258.834 74.55ZM273.434 74.55C272.4 74.55 271.317 74.8833 270.184 75.55C269.084 76.2167 267.95 77.5667 266.784 79.6V93.9C268.217 95.8667 270.117 96.85 272.484 96.85C274.65 96.85 276.217 96.0333 277.184 94.4C278.15 92.7333 278.634 90.4667 278.634 87.6V83.6C278.634 80.4667 278.184 78.1833 277.284 76.75C276.384 75.2833 275.1 74.55 273.434 74.55Z" fill="white"/>
</g>
<defs>
<filter id="filter0_d_2_8" x="-43" y="-28" width="220" height="220" filterUnits="userSpaceOnUse" color-interpolation-filters="sRGB">
<feFlood flood-opacity="0" result="BackgroundImageFix"/>
<feColorMatrix in="SourceAlpha" type="matrix" values="0 0 0 0 0 0 0 0 0 0 0 0 0 0 0 0 0 0 127 0" result="hardAlpha"/>
<feOffset dy="5"/>
<feGaussianBlur stdDeviation="5"/>
<feComposite in2="hardAlpha" operator="out"/>
<feColorMatrix type="matrix" values="0 0 0 0 0 0 0 0 0 0 0 0 0 0 0 0 0 0 0.25 0"/>
<feBlend mode="normal" in2="BackgroundImageFix" result="effect1_dropShadow_2_8"/>
<feBlend mode="normal" in="SourceGraphic" in2="effect1_dropShadow_2_8" result="shape"/>
</filter>
<filter id="filter1_d_2_8" x="-36.8077" y="-27.7562" width="225.176" height="162.145" filterUnits="userSpaceOnUse" color-interpolation-filters="sRGB">
<feFlood flood-opacity="0" result="BackgroundImageFix"/>
<feColorMatrix in="SourceAlpha" type="matrix" values="0 0 0 0 0 0 0 0 0 0 0 0 0 0 0 0 0 0 127 0" result="hardAlpha"/>
<feOffset dy="4"/>
<feGaussianBlur stdDeviation="2"/>
<feComposite in2="hardAlpha" operator="out"/>
<feColorMatrix type="matrix" values="0 0 0 0 0 0 0 0 0 0 0 0 0 0 0 0 0 0 0.25 0"/>
<feBlend mode="normal" in2="BackgroundImageFix" result="effect1_dropShadow_2_8"/>
<feBlend mode="normal" in="SourceGraphic" in2="effect1_dropShadow_2_8" result="shape"/>
</filter>
<filter id="filter2_d_2_8" x="-22.1317" y="-75.1317" width="444.19" height="263.67" filterUnits="userSpaceOnUse" color-interpolation-filters="sRGB">
<feFlood flood-opacity="0" result="BackgroundImageFix"/>
<feColorMatrix in="SourceAlpha" type="matrix" values="0 0 0 0 0 0 0 0 0 0 0 0 0 0 0 0 0 0 127 0" result="hardAlpha"/>
<feOffset dy="4"/>
<feGaussianBlur stdDeviation="2"/>
<feComposite in2="hardAlpha" operator="out"/>
<feColorMatrix type="matrix" values="0 0 0 0 0 0 0 0 0 0 0 0 0 0 0 0 0 0 0.25 0"/>
<feBlend mode="normal" in2="BackgroundImageFix" result="effect1_dropShadow_2_8"/>
<feBlend mode="normal" in="SourceGraphic" in2="effect1_dropShadow_2_8" result="shape"/>
</filter>
<filter id="filter3_d_2_8" x="111.25" y="62.15" width="175.884" height="55" filterUnits="userSpaceOnUse" color-interpolation-filters="sRGB">
<feFlood flood-opacity="0" result="BackgroundImageFix"/>
<feColorMatrix in="SourceAlpha" type="matrix" values="0 0 0 0 0 0 0 0 0 0 0 0 0 0 0 0 0 0 127 0" result="hardAlpha"/>
<feOffset dy="4"/>
<feGaussianBlur stdDeviation="2"/>
<feComposite in2="hardAlpha" operator="out"/>
<feColorMatrix type="matrix" values="0 0 0 0 0 0 0 0 0 0 0 0 0 0 0 0 0 0 0.25 0"/>
<feBlend mode="normal" in2="BackgroundImageFix" result="effect1_dropShadow_2_8"/>
<feBlend mode="normal" in="SourceGraphic" in2="effect1_dropShadow_2_8" result="shape"/>
</filter>
</defs>
</svg>
