<svg width="420" height="207" viewBox="0 0 390 207" fill="none" xmlns="http://www.w3.org/2000/svg">
<g filter="url(#filter0_d_2_8)">
<circle cx="67" cy="77" r="100" fill="#F8C8C8"/>
</g>
<g filter="url(#filter1_d_2_8)">
<ellipse cx="75.7802" cy="49.3165" rx="110" ry="75" transform="rotate(12.68 75.7802 49.3165)" fill="white"/>
</g>
<g filter="url(#filter2_d_2_8)">
<rect x="56.4888" y="-79" width="433.92" height="199.55" rx="80" transform="rotate(12 56.4888 -79)" fill="#F8C8C8"/>
</g>
<g filter="url(#filter3_d_2_8)">
<path d="M156.8 89.75H158.15V98H135.4V96.7L138.15 96.4C138.683 96.3333 139 96.2 139.1 96C139.2 95.8 139.25 95.1167 139.25 93.95V68.05C139.25 66.8833 139.2 66.2 139.1 66C139 65.8 138.683 65.6667 138.15 65.6L135.4 65.35V64H147.45V65.35L144.7 65.6C144.167 65.6667 143.85 65.8 143.75 66C143.65 66.2 143.6 66.8833 143.6 68.05V96.4H152.65C153.45 96.4 154.017 96.3833 154.35 96.35C154.683 96.2833 154.9 96.1667 155 96C155.133 95.8 155.25 95.5 155.35 95.1L156.8 89.75ZM183.482 85.1V86.1C183.482 89.8667 182.532 92.8833 180.632 95.15C178.766 97.3833 176.099 98.5 172.632 98.5C169.199 98.5 166.532 97.3833 164.632 95.15C162.766 92.8833 161.832 89.8667 161.832 86.1V85.1C161.832 81.3667 162.766 78.3833 164.632 76.15C166.499 73.8833 169.166 72.75 172.632 72.75C176.099 72.75 178.766 73.8833 180.632 76.15C182.532 78.3833 183.482 81.3667 183.482 85.1ZM178.982 84.1C178.982 80.6333 178.432 78.15 177.332 76.65C176.266 75.1167 174.699 74.35 172.632 74.35C170.599 74.35 169.032 75.1167 167.932 76.65C166.866 78.15 166.332 80.6333 166.332 84.1V87.1C166.332 90.6 166.866 93.1167 167.932 94.65C169.032 96.15 170.599 96.9 172.632 96.9C174.699 96.9 176.266 96.15 177.332 94.65C178.432 93.1167 178.982 90.6 178.982 87.1V84.1ZM211.614 100.9C211.614 103.567 210.631 105.6 208.664 107C206.731 108.433 204.031 109.15 200.564 109.15C196.764 109.15 193.981 108.483 192.214 107.15C190.448 105.85 189.531 104.2 189.464 102.2L193.164 101.45C193.031 103.283 193.514 104.75 194.614 105.85C195.748 106.983 197.731 107.55 200.564 107.55C203.098 107.55 205.131 107.083 206.664 106.15C208.231 105.217 209.014 103.85 209.014 102.05C209.014 100.717 208.564 99.7167 207.664 99.05C206.764 98.3833 205.281 98.05 203.214 98.05H197.264C195.031 98.05 193.464 97.5833 192.564 96.65C191.664 95.6833 191.214 94.6167 191.214 93.45C191.214 92.4833 191.448 91.5833 191.914 90.75C192.414 89.8833 193.198 89.0333 194.264 88.2C192.931 87.5667 191.848 86.65 191.014 85.45C190.181 84.2167 189.764 82.7333 189.764 81C189.764 79.1667 190.181 77.65 191.014 76.45C191.881 75.2167 193.014 74.3 194.414 73.7C195.848 73.0667 197.431 72.75 199.164 72.75H200.014C201.848 72.75 203.481 73.0833 204.914 73.75L212.164 71.25L212.714 75H206.864C207.631 75.6667 208.231 76.5 208.664 77.5C209.131 78.5 209.364 79.6667 209.364 81C209.364 82.7667 208.931 84.2667 208.064 85.5C207.231 86.7333 206.114 87.6667 204.714 88.3C203.314 88.9 201.748 89.2 200.014 89.2H199.164C198.598 89.2 198.048 89.1667 197.514 89.1C196.981 89.0333 196.464 88.9333 195.964 88.8C195.231 89.3 194.698 89.8167 194.364 90.35C194.064 90.8833 193.914 91.4333 193.914 92C193.914 92.6667 194.148 93.2 194.614 93.6C195.114 94 195.898 94.2 196.964 94.2H203.464C206.098 94.2 208.114 94.7667 209.514 95.9C210.914 97.0333 211.614 98.7 211.614 100.9ZM200.014 87.6C200.914 87.6 201.731 87.4 202.464 87C203.231 86.6 203.848 85.9333 204.314 85C204.781 84.0333 205.014 82.7 205.014 81C205.014 79.2667 204.781 77.9333 204.314 77C203.848 76.0333 203.231 75.35 202.464 74.95C201.731 74.55 200.914 74.35 200.014 74.35H199.164C198.264 74.35 197.431 74.55 196.664 74.95C195.898 75.35 195.281 76.0333 194.814 77C194.348 77.9333 194.114 79.2667 194.114 81C194.114 82.7 194.348 84.0333 194.814 85C195.281 85.9333 195.898 86.6 196.664 87C197.431 87.4 198.264 87.6 199.164 87.6H200.014ZM221.166 67.65C220.366 67.65 219.7 67.4 219.166 66.9C218.666 66.3667 218.416 65.6833 218.416 64.85C218.416 64.05 218.666 63.4 219.166 62.9C219.7 62.4 220.366 62.15 221.166 62.15C221.966 62.15 222.616 62.4 223.116 62.9C223.65 63.4 223.916 64.05 223.916 64.85C223.916 65.6833 223.65 66.3667 223.116 66.9C222.616 67.4 221.966 67.65 221.166 67.65ZM215.316 74.6V73.25H223.266V93.95C223.266 95.1167 223.316 95.8 223.416 96C223.516 96.2 223.833 96.3333 224.366 96.4L227.116 96.7V98H215.316V96.7L218.066 96.4C218.6 96.3333 218.916 96.2 219.016 96C219.116 95.8 219.166 95.1167 219.166 93.95V77.3C219.166 76.1333 219.116 75.45 219.016 75.25C218.916 75.05 218.6 74.9167 218.066 74.85L215.316 74.6ZM258.208 96.7V98H246.408V96.7L249.158 96.4C249.691 96.3333 250.008 96.2 250.108 96C250.208 95.8 250.258 95.1167 250.258 93.95V81.5C250.258 79.0333 249.858 77.3 249.058 76.3C248.258 75.2667 247.108 74.75 245.608 74.75C244.508 74.75 243.291 75.0833 241.958 75.75C240.624 76.4167 239.374 77.7167 238.208 79.65V93.95C238.208 95.1167 238.258 95.8 238.358 96C238.458 96.2 238.774 96.3333 239.308 96.4L242.058 96.7V98H230.258V96.7L233.008 96.4C233.541 96.3333 233.858 96.2 233.958 96C234.058 95.8 234.108 95.1167 234.108 93.95V77.3C234.108 76.1333 234.058 75.45 233.958 75.25C233.858 75.05 233.541 74.9167 233.008 74.85L230.258 74.6V73.25H237.958V77.3C239.158 75.7 240.508 74.55 242.008 73.85C243.541 73.1167 245.074 72.75 246.608 72.75C249.074 72.75 250.974 73.5167 252.308 75.05C253.674 76.55 254.358 78.6833 254.358 81.45V93.95C254.358 95.1167 254.408 95.8 254.508 96C254.608 96.2 254.924 96.3333 255.458 96.4L258.208 96.7Z" fill="white"/>
</g>
<defs>
<filter id="filter0_d_2_8" x="-43" y="-28" width="220" height="220" filterUnits="userSpaceOnUse" color-interpolation-filters="sRGB">
<feFlood flood-opacity="0" result="BackgroundImageFix"/>
<feColorMatrix in="SourceAlpha" type="matrix" values="0 0 0 0 0 0 0 0 0 0 0 0 0 0 0 0 0 0 127 0" result="hardAlpha"/>
<feOffset dy="5"/>
<feGaussianBlur stdDeviation="5"/>
<feComposite in2="hardAlpha" operator="out"/>
<feColorMatrix type="matrix" values="0 0 0 0 0 0 0 0 0 0 0 0 0 0 0 0 0 0 0.25 0"/>
<feBlend mode="normal" in2="BackgroundImageFix" result="effect1_dropShadow_2_8"/>
<feBlend mode="normal" in="SourceGraphic" in2="effect1_dropShadow_2_8" result="shape"/>
</filter>
<filter id="filter1_d_2_8" x="-36.8077" y="-27.7562" width="225.176" height="162.145" filterUnits="userSpaceOnUse" color-interpolation-filters="sRGB">
<feFlood flood-opacity="0" result="BackgroundImageFix"/>
<feColorMatrix in="SourceAlpha" type="matrix" values="0 0 0 0 0 0 0 0 0 0 0 0 0 0 0 0 0 0 127 0" result="hardAlpha"/>
<feOffset dy="4"/>
<feGaussianBlur stdDeviation="2"/>
<feComposite in2="hardAlpha" operator="out"/>
<feColorMatrix type="matrix" values="0 0 0 0 0 0 0 0 0 0 0 0 0 0 0 0 0 0 0.25 0"/>
<feBlend mode="normal" in2="BackgroundImageFix" result="effect1_dropShadow_2_8"/>
<feBlend mode="normal" in="SourceGraphic" in2="effect1_dropShadow_2_8" result="shape"/>
</filter>
<filter id="filter2_d_2_8" x="25.8683" y="-64.1317" width="444.19" height="263.67" filterUnits="userSpaceOnUse" color-interpolation-filters="sRGB">
<feFlood flood-opacity="0" result="BackgroundImageFix"/>
<feColorMatrix in="SourceAlpha" type="matrix" values="0 0 0 0 0 0 0 0 0 0 0 0 0 0 0 0 0 0 127 0" result="hardAlpha"/>
<feOffset dy="4"/>
<feGaussianBlur stdDeviation="2"/>
<feComposite in2="hardAlpha" operator="out"/>
<feColorMatrix type="matrix" values="0 0 0 0 0 0 0 0 0 0 0 0 0 0 0 0 0 0 0.25 0"/>
<feBlend mode="normal" in2="BackgroundImageFix" result="effect1_dropShadow_2_8"/>
<feBlend mode="normal" in="SourceGraphic" in2="effect1_dropShadow_2_8" result="shape"/>
</filter>
<filter id="filter3_d_2_8" x="131.4" y="62.15" width="130.808" height="55" filterUnits="userSpaceOnUse" color-interpolation-filters="sRGB">
<feFlood flood-opacity="0" result="BackgroundImageFix"/>
<feColorMatrix in="SourceAlpha" type="matrix" values="0 0 0 0 0 0 0 0 0 0 0 0 0 0 0 0 0 0 127 0" result="hardAlpha"/>
<feOffset dy="4"/>
<feGaussianBlur stdDeviation="2"/>
<feComposite in2="hardAlpha" operator="out"/>
<feColorMatrix type="matrix" values="0 0 0 0 0 0 0 0 0 0 0 0 0 0 0 0 0 0 0.25 0"/>
<feBlend mode="normal" in2="BackgroundImageFix" result="effect1_dropShadow_2_8"/>
<feBlend mode="normal" in="SourceGraphic" in2="effect1_dropShadow_2_8" result="shape"/>
</filter>
</defs>
</svg>
